<svg width="24" height="24" viewBox="0 0 24 24" fill="none" xmlns="http://www.w3.org/2000/svg">
<g clip-path="url(#clip0_20_165)">
<path d="M23.25 21.25C23.25 22.35 22.35 23.25 21.25 23.25H2.75C1.65 23.25 0.75 22.35 0.75 21.25V2.75C0.75 1.65 1.65 0.75 2.75 0.75H21.25C22.35 0.75 23.25 1.65 23.25 2.75V21.25Z" stroke="black" stroke-opacity="0.7" stroke-width="1.5" stroke-miterlimit="10" stroke-linecap="round" stroke-linejoin="round"/>
<path d="M7.44971 18.4499C7.44971 19.0499 7.04971 19.4499 6.44971 19.4499H5.44971C4.84971 19.4499 4.44971 19.0499 4.44971 18.4499V15.6499C4.44971 15.0499 4.84971 14.6499 5.44971 14.6499H6.44971C7.04971 14.6499 7.44971 15.0499 7.44971 15.6499V18.4499Z" stroke="black" stroke-opacity="0.7" stroke-width="1.5" stroke-miterlimit="10" stroke-linecap="round" stroke-linejoin="round"/>
<path d="M13.4502 18.4499C13.4502 19.0499 13.0502 19.4499 12.4502 19.4499H11.4502C10.8502 19.4499 10.4502 19.0499 10.4502 18.4499V6.6499C10.4502 6.0499 10.8502 5.6499 11.4502 5.6499H12.4502C13.0502 5.6499 13.4502 6.0499 13.4502 6.6499V18.4499Z" stroke="black" stroke-opacity="0.7" stroke-width="1.5" stroke-miterlimit="10" stroke-linecap="round" stroke-linejoin="round"/>
<path d="M19.4502 18.4499C19.4502 19.0499 19.0502 19.4499 18.4502 19.4499H17.4502C16.8502 19.4499 16.4502 19.0499 16.4502 18.4499V11.6499C16.4502 11.0499 16.8502 10.6499 17.4502 10.6499H18.4502C19.0502 10.6499 19.4502 11.0499 19.4502 11.6499V18.4499Z" stroke="black" stroke-opacity="0.7" stroke-width="1.5" stroke-miterlimit="10" stroke-linecap="round" stroke-linejoin="round"/>
</g>
<defs>
<clipPath id="clip0_20_165">
<rect width="24" height="24" fill="white"/>
</clipPath>
</defs>
</svg>
