<svg width="24" height="24" viewBox="0 0 24 24" fill="none" xmlns="http://www.w3.org/2000/svg">
<path d="M6.9211 12.4997L12.3601 17.9387C12.4574 18.036 12.5084 18.1507 12.5131 18.2827C12.5171 18.4147 12.4638 18.5357 12.3531 18.6457C12.2438 18.7524 12.1261 18.8067 12.0001 18.8087C11.8748 18.81 11.7568 18.7557 11.6461 18.6457L5.5661 12.5657C5.47877 12.4777 5.41743 12.3884 5.3821 12.2977C5.34677 12.207 5.3291 12.1077 5.3291 11.9997C5.3291 11.8917 5.34677 11.7924 5.3821 11.7017C5.41743 11.611 5.47877 11.522 5.5661 11.4347L11.6461 5.35371C11.7394 5.26038 11.8531 5.21038 11.9871 5.20371C12.1218 5.19705 12.2441 5.24705 12.3541 5.35371C12.4641 5.46371 12.5191 5.58238 12.5191 5.70971C12.5191 5.83771 12.4641 5.95671 12.3541 6.06671L6.9201 11.4997H18.5001C18.6428 11.4997 18.7618 11.5474 18.8571 11.6427C18.9524 11.738 19.0001 11.857 19.0001 11.9997C19.0001 12.1424 18.9524 12.2614 18.8571 12.3567C18.7618 12.452 18.6428 12.4997 18.5001 12.4997H6.9211Z" fill="black"/>
</svg>
