<svg width="24" height="24" viewBox="0 0 24 24" fill="none" xmlns="http://www.w3.org/2000/svg">
<path d="M3.23005 7.913L7.91005 3.23C8.06005 3.08 8.26005 3 8.48005 3H15.53C15.74 3 15.95 3.08 16.1 3.23L20.77 7.903C20.92 8.053 21 8.253 21 8.473V15.527C21 15.737 20.92 15.947 20.77 16.097L16.1 20.77C15.95 20.92 15.75 21 15.53 21H8.47005C8.36456 21.0011 8.2599 20.9814 8.16208 20.9419C8.06425 20.9025 7.9752 20.844 7.90005 20.77L3.23005 16.097C3.15602 16.0218 3.09759 15.9328 3.05812 15.835C3.01865 15.7371 2.99891 15.6325 3.00005 15.527V8.473C3.00005 8.263 3.08005 8.053 3.23005 7.903V7.913Z" fill="black" fill-opacity="0.16"/>
<path d="M12 16H12.008M12 8V13M3.23005 7.913L7.91005 3.23C8.06005 3.08 8.26005 3 8.48005 3H15.53C15.74 3 15.95 3.08 16.1 3.23L20.77 7.903C20.92 8.053 21 8.253 21 8.473V15.527C21 15.737 20.92 15.947 20.77 16.097L16.1 20.77C15.95 20.92 15.75 21 15.53 21H8.47005C8.36456 21.0011 8.2599 20.9814 8.16208 20.9419C8.06425 20.9025 7.9752 20.844 7.90005 20.77L3.23005 16.097C3.15602 16.0218 3.09759 15.9328 3.05812 15.835C3.01865 15.7371 2.99891 15.6325 3.00005 15.527V8.473C3.00005 8.263 3.08005 8.053 3.23005 7.903V7.913Z" stroke="black" stroke-width="1.5" stroke-miterlimit="10" stroke-linecap="round" stroke-linejoin="round"/>
</svg>
