<svg width="24" height="25" viewBox="0 0 24 25" fill="none" xmlns="http://www.w3.org/2000/svg">
<path fill-rule="evenodd" clip-rule="evenodd" d="M14.2268 6.42233C14.3733 6.27589 14.6107 6.27589 14.7571 6.42233L18.1094 9.77458C18.4755 10.1407 18.4755 10.7343 18.1094 11.1004L14.7571 14.4526C14.6107 14.5991 14.3733 14.5991 14.2268 14.4526C14.0804 14.3062 14.0804 14.0688 14.2268 13.9223L17.3366 10.8125L9.98438 10.8125C9.952 10.8125 9.92059 10.8084 9.89063 10.8007C9.86066 10.8084 9.82925 10.8125 9.79688 10.8125C8.80594 10.8125 8.10353 11.0216 7.59572 11.3666C7.08981 11.7102 6.73979 12.2139 6.49865 12.8729C6.00523 14.2213 6 16.1118 6 18.3125C6 18.5196 5.83211 18.6875 5.625 18.6875C5.41789 18.6875 5.25 18.5196 5.25 18.3125L5.25 18.2523C5.24995 16.1258 5.24991 14.1029 5.79432 12.6152C6.07467 11.849 6.50688 11.1995 7.1743 10.7462C7.83984 10.2941 8.70187 10.0625 9.79688 10.0625C9.82925 10.0625 9.86066 10.0666 9.89063 10.0743C9.92059 10.0666 9.952 10.0625 9.98438 10.0625L17.3366 10.0625L14.2268 6.95266C14.0804 6.80622 14.0804 6.56878 14.2268 6.42233Z" fill="black"/>
</svg>
