<svg width="24" height="24" viewBox="0 0 24 24" fill="none" xmlns="http://www.w3.org/2000/svg">
<path d="M12.95 13.8908C13.9621 13.8908 14.9327 13.4887 15.6483 12.7731C16.364 12.0575 16.766 11.0869 16.766 10.0748C16.766 9.06272 16.364 8.09211 15.6483 7.37647C14.9327 6.66083 13.9621 6.25879 12.95 6.25879C11.9379 6.25879 10.9673 6.66083 10.2517 7.37647C9.53604 8.09211 9.134 9.06272 9.134 10.0748C9.134 11.0869 9.53604 12.0575 10.2517 12.7731C10.9673 13.4887 11.9379 13.8908 12.95 13.8908Z" fill="#FF808C"/>
<path d="M7.20999 15.8258C8.22179 15.8258 9.19215 15.4239 9.9076 14.7084C10.6231 13.993 11.025 13.0226 11.025 12.0108C11.025 10.999 10.6231 10.0286 9.9076 9.31319C9.19215 8.59774 8.22179 8.1958 7.20999 8.1958C6.19819 8.1958 5.22783 8.59774 4.51238 9.31319C3.79693 10.0286 3.39499 10.999 3.39499 12.0108C3.39499 13.0226 3.79693 13.993 4.51238 14.7084C5.22783 15.4239 6.19819 15.8258 7.20999 15.8258Z" fill="#66E1FF"/>
<path d="M9.60999 14.1462C8.67034 13.3713 8.02872 12.2944 7.79462 11.0991C7.56052 9.90389 7.74846 8.66445 8.32635 7.59234C8.90425 6.52022 9.8363 5.68187 10.9634 5.22037C12.0906 4.75886 13.3429 4.7028 14.5068 5.06175C15.6706 5.4207 16.6738 6.17242 17.3452 7.18861C18.0166 8.20481 18.3145 9.4225 18.1882 10.6339C18.0618 11.8453 17.519 12.9752 16.6523 13.831C15.7856 14.6867 14.6489 15.2152 13.436 15.3262" stroke="#191919" stroke-linecap="round" stroke-linejoin="round"/>
<path d="M10.578 7.952C11.5144 8.72975 12.152 9.80818 12.3823 11.0035C12.6125 12.1988 12.421 13.4369 11.8405 14.5068C11.26 15.5767 10.3264 16.4122 9.19882 16.8708C8.07125 17.3293 6.81954 17.3827 5.65706 17.0216C4.49458 16.6606 3.49331 15.9075 2.82392 14.8909C2.15454 13.8742 1.85849 12.6568 1.98624 11.4463C2.11399 10.2357 2.65763 9.10699 3.52449 8.25244C4.39135 7.39788 5.52776 6.87043 6.73999 6.76M16.783 6.26L22.044 1M22.044 1V4.826M22.044 1H18.218M6.73999 17.26V23M4.82699 21.087H8.65299" stroke="#191919" stroke-linecap="round" stroke-linejoin="round"/>
</svg>
