<svg width="24" height="24" viewBox="0 0 24 24" fill="none" xmlns="http://www.w3.org/2000/svg">
<path d="M3.75 13.9399V22.1899H9.75V16.1899C9.75 15.7921 9.90804 15.4106 10.1893 15.1293C10.4706 14.848 10.8522 14.6899 11.25 14.6899H12.75C13.1478 14.6899 13.5294 14.848 13.8107 15.1293C14.092 15.4106 14.25 15.7921 14.25 16.1899V22.1899H20.25V13.9399" stroke="#00008B" stroke-width="1.5" stroke-linecap="round" stroke-linejoin="round"/>
<path d="M0.75 12.44L10.94 2.24999C11.0786 2.1097 11.2436 1.99832 11.4256 1.92229C11.6076 1.84627 11.8028 1.80713 12 1.80713C12.1972 1.80713 12.3924 1.84627 12.5744 1.92229C12.7564 1.99832 12.9214 2.1097 13.06 2.24999L23.25 12.44" stroke="#00008B" stroke-width="1.5" stroke-linecap="round" stroke-linejoin="round"/>
<path d="M16.5 5.69002V2.77002H20.25V9.44002" stroke="#00008B" stroke-width="1.5" stroke-linecap="round" stroke-linejoin="round"/>
</svg>
