<svg width="24" height="24" viewBox="0 0 24 24" fill="none" xmlns="http://www.w3.org/2000/svg">
<path d="M3 16.0003L7.47 11.5303C7.63808 11.3622 7.83763 11.2288 8.05725 11.1378C8.27688 11.0468 8.51227 11 8.75 11C8.98773 11 9.22312 11.0468 9.44275 11.1378C9.66237 11.2288 9.86192 11.3622 10.03 11.5303L14 15.5003M14 15.5003L15.5 17.0003M14 15.5003L15.97 13.5303C16.1381 13.3622 16.3376 13.2288 16.5573 13.1378C16.7769 13.0468 17.0123 13 17.25 13C17.4877 13 17.7231 13.0468 17.9427 13.1378C18.1624 13.2288 18.3619 13.3622 18.53 13.5303L21 16.0003" stroke="black" stroke-width="1.5" stroke-linecap="round" stroke-linejoin="round"/>
<path d="M12 2.5C7.77 2.5 5.655 2.5 4.253 3.698C4.053 3.86867 3.868 4.05367 3.698 4.253C2.5 5.655 2.5 7.77 2.5 12C2.5 16.23 2.5 18.345 3.698 19.747C3.86867 19.947 4.05367 20.132 4.253 20.302C5.655 21.5 7.77 21.5 12 21.5C16.23 21.5 18.345 21.5 19.747 20.302C19.947 20.1313 20.132 19.9463 20.302 19.747C21.5 18.345 21.5 16.23 21.5 12M15.5 5.5C16.09 4.893 17.66 2.5 18.5 2.5C19.34 2.5 20.91 4.893 21.5 5.5M18.5 3V9.5" stroke="black" stroke-width="1.5" stroke-linecap="round" stroke-linejoin="round"/>
</svg>
