<svg width="14" height="14" viewBox="0 0 14 14" fill="none" xmlns="http://www.w3.org/2000/svg">
<g clip-path="url(#clip0_343_1290)">
<path d="M6.00042 3.00042L7.46442 1.53642C8.13108 0.891062 9.0247 0.5336 9.95253 0.541132C10.8804 0.548665 11.7681 0.920589 12.4242 1.57669C13.0803 2.23278 13.4522 3.12048 13.4597 4.04831C13.4672 4.97614 13.1098 5.86976 12.4644 6.53642L11.0004 8.00042M8.00042 11.0004L6.53642 12.4654C5.86976 13.1108 4.97614 13.4682 4.04831 13.4607C3.12048 13.4532 2.23278 13.0813 1.57669 12.4252C0.920589 11.7691 0.548665 10.8814 0.541132 9.95353C0.5336 9.0257 0.891062 8.13208 1.53642 7.46542L3.00042 6.00042M9.00042 5.00042L5.00042 9.00042" stroke="#4147D5" stroke-linecap="round" stroke-linejoin="round"/>
</g>
<defs>
<clipPath id="clip0_343_1290">
<rect width="14" height="14" fill="white"/>
</clipPath>
</defs>
</svg>
