<?xml version="1.0" standalone="no"?>
<!DOCTYPE svg PUBLIC "-//W3C//DTD SVG 20010904//EN"
 "http://www.w3.org/TR/2001/REC-SVG-20010904/DTD/svg10.dtd">
<svg version="1.0" xmlns="http://www.w3.org/2000/svg"
 width="980.000000pt" height="980.000000pt" viewBox="0 0 980.000000 980.000000"
 preserveAspectRatio="xMidYMid meet">

<g transform="translate(0.000000,980.000000) scale(0.100000,-0.100000)"
fill="#000000" stroke="none">
<path d="M4799 7563 c-74 -38 -111 -93 -117 -173 -7 -91 20 -151 92 -208 l27
-21 -33 -166 c-28 -145 -35 -166 -53 -169 -11 -2 -74 -9 -140 -15 -242 -21
-328 -51 -381 -130 -20 -31 -28 -60 -37 -146 l-12 -107 -78 -29 c-417 -151
-782 -446 -1039 -839 l-89 -135 -97 -26 c-53 -14 -109 -29 -124 -33 -45 -11
-99 -67 -128 -131 -100 -222 -189 -615 -191 -848 -1 -117 31 -166 166 -247 39
-23 72 -44 74 -46 1 -1 9 -38 17 -81 35 -202 121 -410 234 -564 82 -110 222
-247 340 -331 115 -82 355 -204 507 -257 204 -73 435 -123 713 -157 181 -23
662 -26 850 -6 281 30 575 93 779 168 145 53 384 176 491 252 123 87 290 254
362 363 107 160 178 339 211 530 8 44 16 81 18 82 2 2 36 23 74 46 155 95 179
143 163 322 -26 308 -147 750 -231 845 -39 46 -60 55 -195 90 l-113 29 -46 74
c-161 266 -398 514 -653 683 -117 78 -303 173 -425 217 l-80 29 -11 98 c-6 55
-19 116 -29 137 -19 41 -64 83 -104 99 -43 16 -212 46 -301 53 -47 3 -99 8
-116 11 l-31 4 -32 165 -32 164 45 41 c58 54 80 110 74 190 -11 157 -175 245
-319 173z m242 -1643 c208 -15 379 -53 560 -125 568 -226 954 -769 1010 -1419
28 -334 -70 -544 -344 -740 -395 -281 -1160 -403 -1882 -300 -614 88 -1046
343 -1165 690 -74 214 -28 600 110 914 252 575 774 936 1417 979 65 5 127 9
138 9 11 1 81 -3 156 -8z"/>
<path d="M3974 5012 c-290 -100 -332 -652 -63 -834 198 -133 434 53 455 359
15 222 -93 432 -246 477 -67 20 -83 20 -146 -2z"/>
<path d="M5678 5015 c-66 -21 -150 -101 -188 -178 -82 -167 -76 -388 15 -543
13 -23 48 -62 76 -88 113 -102 251 -95 361 17 76 78 128 223 128 355 -1 286
-193 500 -392 437z"/>
</g>
</svg>
