<svg width="24" height="24" viewBox="0 0 24 24" fill="none" xmlns="http://www.w3.org/2000/svg">
<g clip-path="url(#clip0_104_1216)">
<path d="M15 11.2612H9C9 10.4656 9.31607 9.70252 9.87868 9.13991C10.4413 8.5773 11.2044 8.26123 12 8.26123C12.7956 8.26123 13.5587 8.5773 14.1213 9.13991C14.6839 9.70252 15 10.4656 15 11.2612Z" stroke="black" stroke-opacity="0.7" stroke-width="1.5" stroke-linecap="round" stroke-linejoin="round"/>
<path d="M9.75 6.01123C9.75 6.60797 9.98705 7.18026 10.409 7.60222C10.831 8.02418 11.4033 8.26123 12 8.26123C12.5967 8.26123 13.169 8.02418 13.591 7.60222C14.0129 7.18026 14.25 6.60797 14.25 6.01123C14.25 5.41449 14.0129 4.8422 13.591 4.42024C13.169 3.99828 12.5967 3.76123 12 3.76123C11.4033 3.76123 10.831 3.99828 10.409 4.42024C9.98705 4.8422 9.75 5.41449 9.75 6.01123Z" stroke="black" stroke-opacity="0.7" stroke-width="1.5" stroke-linecap="round" stroke-linejoin="round"/>
<path d="M6.75 0.76123H17.25C17.25 0.76123 20.25 0.76123 20.25 3.76123V8.26123C20.25 8.26123 20.25 11.2612 17.25 11.2612H6.75C6.75 11.2612 3.75 11.2612 3.75 8.26123V3.76123C3.75 3.76123 3.75 0.76123 6.75 0.76123Z" stroke="black" stroke-opacity="0.7" stroke-width="1.5" stroke-linecap="round" stroke-linejoin="round"/>
<path d="M2.25 18.0112C2.25 18.608 2.48705 19.1803 2.90901 19.6022C3.33097 20.0242 3.90326 20.2612 4.5 20.2612C5.09674 20.2612 5.66903 20.0242 6.09099 19.6022C6.51295 19.1803 6.75 18.608 6.75 18.0112C6.75 17.4145 6.51295 16.8422 6.09099 16.4202C5.66903 15.9983 5.09674 15.7612 4.5 15.7612C3.90326 15.7612 3.33097 15.9983 2.90901 16.4202C2.48705 16.8422 2.25 17.4145 2.25 18.0112Z" stroke="black" stroke-opacity="0.7" stroke-width="1.5" stroke-linecap="round" stroke-linejoin="round"/>
<path d="M8.25 23.2612C7.88751 22.5816 7.34712 22.0132 6.68661 21.6169C6.02609 21.2206 5.27029 21.0112 4.5 21.0112C3.72971 21.0112 2.97391 21.2206 2.31339 21.6169C1.65288 22.0132 1.11249 22.5816 0.75 23.2612" stroke="black" stroke-opacity="0.7" stroke-width="1.5" stroke-linecap="round" stroke-linejoin="round"/>
<path d="M17.25 18.0112C17.25 18.608 17.4871 19.1803 17.909 19.6022C18.331 20.0242 18.9033 20.2612 19.5 20.2612C20.0967 20.2612 20.669 20.0242 21.091 19.6022C21.5129 19.1803 21.75 18.608 21.75 18.0112C21.75 17.4145 21.5129 16.8422 21.091 16.4202C20.669 15.9983 20.0967 15.7612 19.5 15.7612C18.9033 15.7612 18.331 15.9983 17.909 16.4202C17.4871 16.8422 17.25 17.4145 17.25 18.0112Z" stroke="black" stroke-opacity="0.7" stroke-width="1.5" stroke-linecap="round" stroke-linejoin="round"/>
<path d="M23.25 23.2612C22.8875 22.5816 22.3471 22.0132 21.6866 21.6169C21.0261 21.2206 20.2703 21.0112 19.5 21.0112C18.7297 21.0112 17.9739 21.2206 17.3134 21.6169C16.6529 22.0132 16.1125 22.5816 15.75 23.2612" stroke="black" stroke-opacity="0.7" stroke-width="1.5" stroke-linecap="round" stroke-linejoin="round"/>
<path d="M9.75 18.0112C9.75 18.608 9.98705 19.1803 10.409 19.6022C10.831 20.0242 11.4033 20.2612 12 20.2612C12.5967 20.2612 13.169 20.0242 13.591 19.6022C14.0129 19.1803 14.25 18.608 14.25 18.0112C14.25 17.4145 14.0129 16.8422 13.591 16.4202C13.169 15.9983 12.5967 15.7612 12 15.7612C11.4033 15.7612 10.831 15.9983 10.409 16.4202C9.98705 16.8422 9.75 17.4145 9.75 18.0112Z" stroke="black" stroke-opacity="0.7" stroke-width="1.5" stroke-linecap="round" stroke-linejoin="round"/>
<path d="M15.75 23.2612C15.3875 22.5816 14.8471 22.0132 14.1866 21.6169C13.5261 21.2206 12.7703 21.0112 12 21.0112C11.2297 21.0112 10.4739 21.2206 9.81339 21.6169C9.15288 22.0132 8.61249 22.5816 8.25 23.2612" stroke="black" stroke-opacity="0.7" stroke-width="1.5" stroke-linecap="round" stroke-linejoin="round"/>
</g>
<defs>
<clipPath id="clip0_104_1216">
<rect width="24" height="24" fill="white"/>
</clipPath>
</defs>
</svg>
