<svg width="14" height="14" viewBox="0 0 14 14" fill="none" xmlns="http://www.w3.org/2000/svg">
<g clip-path="url(#clip0_379_1303)">
<path fill-rule="evenodd" clip-rule="evenodd" d="M13.9675 0.679878C14.0025 0.589477 14.0106 0.490827 13.9906 0.395944C13.9706 0.30106 13.9234 0.214036 13.8549 0.14547C13.7863 0.0769043 13.6993 0.0297551 13.6044 0.00976443C13.5095 -0.0102262 13.4109 -0.0021957 13.3205 0.0328781L0.320459 5.03288C0.228471 5.06827 0.148994 5.13006 0.0920159 5.21048C0.0350376 5.29091 0.00309939 5.38638 0.000214325 5.4849C-0.00267074 5.58341 0.0236261 5.68059 0.0758005 5.76421C0.127975 5.84783 0.203699 5.91416 0.293459 5.95488L5.62346 8.37788L8.04546 13.7069C8.08617 13.7966 8.15251 13.8724 8.23613 13.9245C8.31975 13.9767 8.41692 14.003 8.51544 14.0001C8.61396 13.9972 8.70943 13.9653 8.78985 13.9083C8.87028 13.8513 8.93207 13.7719 8.96746 13.6799L13.9675 0.679878Z" fill="#154D71"/>
<path fill-rule="evenodd" clip-rule="evenodd" d="M5.95455 9.10685L9.03055 6.02985C9.16303 5.88767 9.23516 5.69963 9.23173 5.50532C9.2283 5.31102 9.14959 5.12564 9.01218 4.98822C8.87476 4.85081 8.68938 4.7721 8.49508 4.76867C8.30078 4.76524 8.11273 4.83737 7.97055 4.96985L4.89355 8.04585L5.62355 8.37785L5.95455 9.10685Z" fill="#D9D9D9"/>
</g>
<defs>
<clipPath id="clip0_379_1303">
<rect width="14" height="14" fill="white"/>
</clipPath>
</defs>
</svg>
