<svg width="24" height="24" viewBox="0 0 24 24" fill="none" xmlns="http://www.w3.org/2000/svg">
<g clip-path="url(#clip0_40_252)">
<path d="M2.25 0.75H21.75C21.75 0.75 23.25 0.75 23.25 2.25V21.75C23.25 21.75 23.25 23.25 21.75 23.25H2.25C2.25 23.25 0.75 23.25 0.75 21.75V2.25C0.75 2.25 0.75 0.75 2.25 0.75Z" stroke="#1C6EA4" stroke-width="1.5" stroke-linecap="round" stroke-linejoin="round"/>
<path d="M13.5 7.5C13.5 8.29565 13.8161 9.05871 14.3787 9.62132C14.9413 10.1839 15.7044 10.5 16.5 10.5C17.2956 10.5 18.0587 10.1839 18.6213 9.62132C19.1839 9.05871 19.5 8.29565 19.5 7.5C19.5 6.70435 19.1839 5.94129 18.6213 5.37868C18.0587 4.81607 17.2956 4.5 16.5 4.5C15.7044 4.5 14.9413 4.81607 14.3787 5.37868C13.8161 5.94129 13.5 6.70435 13.5 7.5Z" stroke="#F2451C" stroke-opacity="0.7" stroke-width="1.5" stroke-linecap="round" stroke-linejoin="round"/>
<path d="M3.96094 14.959C4.98401 14.3759 6.12074 14.0202 7.29369 13.9161C8.46663 13.812 9.64824 13.9619 10.758 14.3557C11.8678 14.7494 12.8797 15.3777 13.7247 16.1978C14.5698 17.0179 15.2281 18.0105 15.6549 19.108" stroke="#153060" stroke-opacity="0.7" stroke-width="1.5" stroke-linecap="round" stroke-linejoin="round"/>
<path d="M14.3818 16.9181C15.1771 16.1932 16.2081 15.7811 17.2839 15.7581C18.3597 15.7351 19.4074 16.1028 20.2328 16.7931" stroke="#153060" stroke-opacity="0.7" stroke-width="1.5" stroke-linecap="round" stroke-linejoin="round"/>
</g>
<defs>
<clipPath id="clip0_40_252">
<rect width="24" height="24" fill="white"/>
</clipPath>
</defs>
</svg>
