<svg width="24" height="24" viewBox="0 0 24 24" fill="none" xmlns="http://www.w3.org/2000/svg">
<path d="M19.4846 20.1536L13.2226 13.8916C12.7226 14.3176 12.1476 14.6472 11.4976 14.8806C10.8476 15.1139 10.1943 15.2306 9.53762 15.2306C7.93628 15.2306 6.58095 14.6762 5.47162 13.5676C4.36228 12.4589 3.80762 11.1039 3.80762 9.50256C3.80762 7.90122 4.36162 6.54556 5.46962 5.43556C6.57762 4.32556 7.93228 3.76989 9.53362 3.76856C11.135 3.76722 12.491 4.32189 13.6016 5.43256C14.7123 6.54322 15.2676 7.89889 15.2676 9.49956C15.2676 10.1942 15.1446 10.8666 14.8986 11.5166C14.6526 12.1666 14.3293 12.7226 13.9286 13.1846L20.1906 19.4456L19.4846 20.1536ZM9.53862 14.2296C10.8653 14.2296 11.9853 13.7729 12.8986 12.8596C13.812 11.9462 14.2686 10.8259 14.2686 9.49856C14.2686 8.17122 13.812 7.05122 12.8986 6.13856C11.9853 5.22589 10.8653 4.76922 9.53862 4.76856C8.21195 4.76789 7.09162 5.22456 6.17762 6.13856C5.26362 7.05256 4.80695 8.17256 4.80762 9.49856C4.80828 10.8246 5.26495 11.9446 6.17762 12.8586C7.09028 13.7726 8.21028 14.2292 9.53762 14.2286" fill="black"/>
</svg>
