<svg width="16" height="16" viewBox="0 0 16 16" fill="none" xmlns="http://www.w3.org/2000/svg">
<path fill-rule="evenodd" clip-rule="evenodd" d="M1.59083 2.71245L2.37998 7.25004H7.24916C7.66337 7.25004 7.99916 7.58582 7.99916 8.00004C7.99916 8.41425 7.66337 8.75004 7.24916 8.75004H2.37998L1.59083 13.2876L13.9285 8.00004L1.59083 2.71245ZM0.987893 8.00004L0.0628203 2.68087C-0.0119643 2.25086 0.127178 1.81135 0.435807 1.50272C0.823591 1.11494 1.40841 1.00231 1.91248 1.21834L15.3148 6.9622C15.7299 7.14013 15.9991 7.54835 15.9991 8.00004C15.9991 8.45172 15.7299 8.85995 15.3148 9.03788L1.91248 14.7817C1.40841 14.9978 0.823591 14.8851 0.435807 14.4974C0.127178 14.1887 -0.0119645 13.7492 0.0628203 13.3192L0.987893 8.00004Z" fill="#8E8E93"/>
</svg>
