<svg width="24" height="24" viewBox="0 0 24 24" fill="none" xmlns="http://www.w3.org/2000/svg">
<path d="M10.8082 5.764C10.8082 5.6034 10.7606 5.44641 10.6714 5.31288C10.5822 5.17934 10.4554 5.07527 10.307 5.01381C10.1586 4.95235 9.99535 4.93627 9.83783 4.9676C9.68032 4.99893 9.53564 5.07627 9.42208 5.18983C9.30852 5.30339 9.23118 5.44807 9.19985 5.60559C9.16852 5.7631 9.1846 5.92637 9.24606 6.07474C9.30752 6.22311 9.41159 6.34993 9.54513 6.43915C9.67866 6.52838 9.83565 6.576 9.99625 6.576C10.103 6.57626 10.2087 6.55544 10.3073 6.51473C10.4059 6.47401 10.4956 6.41421 10.571 6.33876C10.6465 6.26331 10.7063 6.17369 10.747 6.07505C10.7877 5.97642 10.8085 5.87071 10.8082 5.764ZM14.0042 4.952C13.8436 4.9518 13.6865 4.99926 13.5529 5.08836C13.4192 5.17746 13.315 5.30421 13.2533 5.45257C13.1917 5.60092 13.1755 5.76422 13.2067 5.9218C13.2379 6.07938 13.3152 6.22416 13.4287 6.33782C13.5422 6.45148 13.6869 6.52891 13.8445 6.56032C14.002 6.59174 14.1653 6.57571 14.3138 6.51429C14.4622 6.45286 14.5891 6.34878 14.6783 6.21523C14.7676 6.08167 14.8152 5.92464 14.8152 5.764C14.8155 5.65738 14.7947 5.55175 14.7541 5.45318C14.7134 5.35461 14.6537 5.26504 14.5784 5.1896C14.503 5.11416 14.4135 5.05433 14.315 5.01356C14.2165 4.97279 14.1109 4.95187 14.0042 4.952ZM13.1282 7.106C12.8186 7.38498 12.4166 7.53937 11.9997 7.53937C11.5829 7.53937 11.1809 7.38498 10.8712 7.106C10.8301 7.06807 10.7756 7.04803 10.7198 7.05028C10.6639 7.05253 10.6112 7.07689 10.5732 7.118C10.5353 7.15911 10.5153 7.2136 10.5175 7.26949C10.5198 7.32537 10.5441 7.37807 10.5852 7.416C10.9683 7.77636 11.4744 7.97701 12.0002 7.97701C12.5261 7.97701 13.0322 7.77636 13.4152 7.416C13.4356 7.39722 13.4521 7.37462 13.4637 7.34948C13.4753 7.32434 13.4819 7.29716 13.483 7.26949C13.4841 7.24181 13.4797 7.21419 13.4702 7.1882C13.4606 7.16221 13.446 7.13835 13.4272 7.118C13.4085 7.09765 13.3859 7.08119 13.3607 7.06957C13.3356 7.05795 13.3084 7.0514 13.2807 7.05028C13.2531 7.04917 13.2254 7.05351 13.1994 7.06308C13.1735 7.07264 13.1486 7.08722 13.1282 7.106ZM11.9472 0C10.0492 0.000795213 8.22906 0.755227 6.88701 2.09747C5.54496 3.43971 4.79078 5.25992 4.79025 7.158V8.543L4.79225 8.573C4.40627 8.64478 4.05703 8.84794 3.80384 9.14798C3.55064 9.44802 3.4091 9.82645 3.40325 10.219C3.18623 10.5889 3.07227 11.0102 3.07325 11.439V20.617C3.07399 21.1472 3.24917 21.6624 3.57177 22.0831C3.89436 22.5038 4.34644 22.8067 4.85825 22.945C4.99656 23.2582 5.22275 23.5246 5.5094 23.7118C5.79605 23.8991 6.13086 23.9992 6.47325 24H8.47825C8.80496 24.0011 9.12552 23.9112 9.40404 23.7404C9.68256 23.5696 9.90804 23.3247 10.0552 23.033H13.7362C14.0372 23.627 14.6462 24.001 15.3122 24H17.3202C17.6524 23.9993 17.9777 23.9051 18.2588 23.7283C18.54 23.5515 18.7657 23.2991 18.9102 23C19.4742 22.907 19.9868 22.6166 20.3564 22.1807C20.7261 21.7447 20.9287 21.1916 20.9282 20.62V11.44C20.9297 11.0203 20.8211 10.6076 20.6132 10.243V10.233C20.613 9.86519 20.4927 9.5075 20.2708 9.21423C20.0488 8.92096 19.7372 8.70811 19.3832 8.608V7.16C19.3832 5.26105 18.6289 3.43988 17.2861 2.09712C15.9434 0.754355 14.1222 0 12.2232 0L11.9472 0ZM11.9792 2.559H12.1932C12.7818 2.55861 13.3647 2.67419 13.9086 2.89916C14.4525 3.12412 14.9467 3.45405 15.363 3.8701C15.7793 4.28615 16.1096 4.78015 16.3349 5.32388C16.5603 5.86762 16.6762 6.45043 16.6762 7.039V8.543H15.6682C15.229 8.54239 14.8072 8.71484 14.4942 9.023H9.52725C9.21144 8.71356 8.78638 8.5411 8.34425 8.543H7.49625V7.039C7.49625 6.45043 7.61223 5.86762 7.83755 5.32388C8.06288 4.78015 8.39315 4.28615 8.80947 3.8701C9.22579 3.45405 9.72002 3.12412 10.2639 2.89916C10.8078 2.67419 11.3907 2.55861 11.9792 2.559ZM12.0042 12.051V12.055C12.425 12.0571 12.8341 12.1936 13.1718 12.4446C13.5095 12.6956 13.7582 13.0479 13.8816 13.4502C14.005 13.8525 13.9966 14.2836 13.8576 14.6808C13.7187 15.078 13.4565 15.4204 13.1092 15.658C13.0616 15.6906 13.024 15.7359 13.0006 15.7887C12.9773 15.8415 12.9692 15.8998 12.9772 15.957L13.4632 19.254C13.4704 19.2976 13.4679 19.3423 13.4558 19.3848C13.4437 19.4274 13.4223 19.4667 13.3932 19.5C13.3641 19.5337 13.328 19.5607 13.2874 19.5791C13.2469 19.5976 13.2028 19.6071 13.1582 19.607H10.8422C10.7981 19.6067 10.7545 19.597 10.7144 19.5785C10.6743 19.56 10.6386 19.5331 10.6097 19.4997C10.5808 19.4663 10.5594 19.427 10.5469 19.3847C10.5344 19.3423 10.5311 19.2977 10.5372 19.254L11.0212 15.957C11.0313 15.9006 11.0244 15.8425 11.0014 15.79C10.9785 15.7375 10.9405 15.6929 10.8922 15.662C10.5579 15.4357 10.301 15.1124 10.1561 14.7356C10.0111 14.3589 9.98509 13.9467 10.0815 13.5547C10.1779 13.1627 10.3922 12.8097 10.6954 12.5432C10.9985 12.2766 11.3761 12.1094 11.7772 12.064C11.8526 12.0554 11.9284 12.051 12.0042 12.051Z" fill="black"/>
</svg>
