<svg width="24" height="24" viewBox="0 0 24 24" fill="none" xmlns="http://www.w3.org/2000/svg">
<path d="M5 8.25C4.80109 8.25 4.61032 8.32902 4.46967 8.46967C4.32902 8.61032 4.25 8.80109 4.25 9C4.25 9.19891 4.32902 9.38968 4.46967 9.53033C4.61032 9.67098 4.80109 9.75 5 9.75H5.45V15C5.45 15.1989 5.52902 15.3897 5.66967 15.5303C5.81032 15.671 6.00109 15.75 6.2 15.75C6.39891 15.75 6.58968 15.671 6.73033 15.5303C6.87098 15.3897 6.95 15.1989 6.95 15V9C6.95 8.80109 6.87098 8.61032 6.73033 8.46967C6.58968 8.32902 6.39891 8.25 6.2 8.25H5ZM10.957 8.25C9.947 8.25 9.05 9.033 9.05 10.09V10.879C9.05 11.295 9.189 11.669 9.42 11.969C9.189 12.27 9.05 12.644 9.05 13.061V13.909C9.05 14.967 9.946 15.75 10.957 15.75H12.243C13.253 15.75 14.15 14.967 14.15 13.91V13.06C14.15 12.644 14.011 12.27 13.78 11.97C14.011 11.67 14.15 11.295 14.15 10.879V10.091C14.15 9.033 13.254 8.25 12.243 8.25H10.957ZM10.55 13.06C10.55 12.913 10.69 12.72 10.957 12.72H12.243C12.51 12.72 12.65 12.913 12.65 13.06V13.91C12.65 14.056 12.51 14.25 12.243 14.25H10.957C10.69 14.25 10.55 14.056 10.55 13.91V13.06ZM12.65 10.879C12.65 11.026 12.51 11.219 12.243 11.219H10.957C10.69 11.219 10.55 11.026 10.55 10.879V10.091C10.55 9.944 10.69 9.75 10.957 9.75H12.243C12.51 9.75 12.65 9.944 12.65 10.09V10.879ZM18.95 10.636C18.95 10.4371 18.871 10.2463 18.7303 10.1057C18.5897 9.96502 18.3989 9.886 18.2 9.886C18.0011 9.886 17.8103 9.96502 17.6697 10.1057C17.529 10.2463 17.45 10.4371 17.45 10.636V11.523H16.4C16.2011 11.523 16.0103 11.602 15.8697 11.7427C15.729 11.8833 15.65 12.0741 15.65 12.273C15.65 12.4719 15.729 12.6627 15.8697 12.8033C16.0103 12.944 16.2011 13.023 16.4 13.023H17.45V13.909C17.45 14.1079 17.529 14.2987 17.6697 14.4393C17.8103 14.58 18.0011 14.659 18.2 14.659C18.3989 14.659 18.5897 14.58 18.7303 14.4393C18.871 14.2987 18.95 14.1079 18.95 13.909V13.023H20C20.1989 13.023 20.3897 12.944 20.5303 12.8033C20.671 12.6627 20.75 12.4719 20.75 12.273C20.75 12.0741 20.671 11.8833 20.5303 11.7427C20.3897 11.602 20.1989 11.523 20 11.523H18.95V10.636Z" fill="black"/>
<path d="M17.302 4H6.698C5.67 4 4.856 4 4.2 4.052C3.529 4.105 2.96 4.217 2.442 4.473C1.60592 4.88287 0.92142 5.54741 0.487 6.371C0.223 6.875 0.108 7.427 0.054 8.08C0 8.717 0 9.51 0 10.507V13.493C0 14.492 0 15.283 0.054 15.921C0.108 16.573 0.223 17.125 0.487 17.629C0.92116 18.4524 1.60529 19.117 2.441 19.527C2.96 19.783 3.528 19.895 4.199 19.947C4.856 20 5.67 20 6.7 20H17.303C18.331 20 19.145 20 19.802 19.948C20.473 19.895 21.042 19.783 21.56 19.527C22.3957 19.117 23.0798 18.4524 23.514 17.629C23.778 17.125 23.892 16.573 23.947 15.921C24.001 15.283 24.001 14.491 24.001 13.493V10.507C24.001 9.508 24.001 8.717 23.947 8.079C23.892 7.427 23.778 6.875 23.514 6.371C23.0798 5.54756 22.3957 4.88304 21.56 4.473C21.041 4.217 20.473 4.105 19.802 4.053C19.144 4 18.33 4 17.3 4M3.082 5.695C3.368 5.553 3.73 5.465 4.314 5.419C4.907 5.372 5.664 5.371 6.729 5.371H17.271C18.337 5.371 19.093 5.372 19.686 5.419C20.27 5.465 20.631 5.553 20.918 5.695C21.494 5.98 21.962 6.435 22.255 6.994C22.401 7.272 22.492 7.624 22.539 8.191C22.588 8.766 22.589 9.501 22.589 10.537V13.463C22.589 14.498 22.588 15.233 22.539 15.809C22.492 16.377 22.401 16.728 22.255 17.006C21.9586 17.57 21.4903 18.025 20.918 18.305C20.631 18.447 20.27 18.535 19.686 18.581C19.093 18.628 18.336 18.629 17.271 18.629H6.729C5.664 18.629 4.907 18.628 4.314 18.581C3.73 18.535 3.368 18.447 3.082 18.305C2.5097 18.025 2.04142 17.57 1.745 17.006C1.599 16.728 1.508 16.376 1.461 15.809C1.412 15.234 1.411 14.499 1.411 13.463V10.537C1.411 9.502 1.412 8.767 1.461 8.191C1.508 7.624 1.599 7.272 1.745 6.994C2.04142 6.43001 2.5097 5.97504 3.082 5.695Z" fill="black"/>
</svg>
