<svg width="25" height="25" viewBox="0 0 25 25" fill="none" xmlns="http://www.w3.org/2000/svg">
<path d="M12.4998 12.5V21.875M15.7393 14.5625L12.4268 11.25L9.25977 14.4165" stroke="#344054" stroke-linecap="round" stroke-linejoin="round"/>
<path d="M6.24955 15.7399C5.32596 15.1265 4.56469 14.2985 4.03084 13.3268C3.49698 12.3551 3.20642 11.2685 3.18402 10.16C3.16161 9.05148 3.40803 7.95405 3.90218 6.96154C4.39634 5.96903 5.12353 5.11097 6.02157 4.46075C6.91961 3.81053 7.96178 3.38749 9.05895 3.22782C10.1561 3.06814 11.2756 3.17658 12.3217 3.54386C13.3679 3.91114 14.3095 4.52634 15.066 5.33683C15.8226 6.14732 16.3716 7.12899 16.666 8.19789C16.9513 8.14396 17.2408 8.11602 17.531 8.11439C18.5794 8.11805 19.5915 8.4989 20.3821 9.18733C21.1728 9.87575 21.6893 10.8258 21.8372 11.8637C21.9851 12.9016 21.7545 13.958 21.1875 14.8399C20.6206 15.7217 19.7552 16.3701 18.7495 16.6664" stroke="#306CFE" stroke-linecap="round" stroke-linejoin="round"/>
</svg>
